<svg width="1000" height="1000" viewBox="0 0 1000 1000" fill="none" xmlns="http://www.w3.org/2000/svg">
<path d="M304.743 317.554C315.807 276.264 290.861 232.556 248.146 234.188C223.396 235.134 198.777 239.644 175.069 247.692C126.749 264.094 84.3785 294.457 53.3149 334.939C22.2512 375.422 3.88978 424.208 0.552402 475.126C-2.78497 526.044 9.05164 576.809 34.5654 621C60.0792 665.191 98.1242 700.824 143.889 723.393C189.655 745.962 241.085 754.453 291.676 747.793C342.267 741.132 389.747 719.619 428.111 685.975C446.935 669.466 463.15 650.401 476.344 629.44C499.116 593.264 473.736 549.806 432.446 538.743L416.401 534.443C383.972 525.754 351.286 547.454 326.044 569.59V569.59C310.699 583.048 291.707 591.653 271.47 594.317C251.234 596.981 230.662 593.585 212.356 584.557C194.05 575.53 178.832 561.276 168.626 543.6C158.421 525.924 153.686 505.618 155.021 485.25C156.356 464.883 163.7 445.369 176.126 429.176C188.551 412.983 205.5 400.838 224.827 394.277V394.277C256.619 383.485 291.754 366.028 300.444 333.599L304.743 317.554Z" fill="#2D99FF"/>
<circle cx="742" cy="508" r="258" fill="url(#paint0_linear_47_2)"/>
<defs>
<linearGradient id="paint0_linear_47_2" x1="484" y1="508" x2="1000" y2="508" gradientUnits="userSpaceOnUse">
<stop stop-color="#2D99FF"/>
<stop offset="1" stop-color="#9D99FF"/>
</linearGradient>
</defs>
</svg>
