<svg width="1000" height="1000" viewBox="0 0 1000 1000" fill="none" xmlns="http://www.w3.org/2000/svg">
<rect width="1000" height="1000" fill="#101010"/>
<path d="M336.235 364.77C344.811 332.762 325.474 298.88 292.361 300.146C273.175 300.879 254.091 304.375 235.712 310.614C198.255 323.329 165.41 346.866 141.329 378.248C117.249 409.63 103.015 447.448 100.428 486.919C97.8411 526.391 107.017 565.743 126.795 600C146.573 634.257 176.065 661.879 211.542 679.375C247.019 696.87 286.887 703.452 326.105 698.289C365.323 693.126 402.129 676.449 431.869 650.368C446.462 637.571 459.031 622.792 469.259 606.543C486.912 578.499 467.238 544.811 435.23 536.235L422.792 532.902C397.653 526.166 372.315 542.987 352.748 560.147V560.147C340.852 570.58 326.129 577.25 310.442 579.316C294.755 581.381 278.808 578.748 264.617 571.75C250.426 564.752 238.629 553.703 230.718 540C222.807 526.297 219.136 510.556 220.171 494.768C221.206 478.979 226.9 463.852 236.532 451.299C246.164 438.746 259.302 429.332 274.285 424.246V424.246C298.929 415.88 326.166 402.347 332.902 377.208L336.235 364.77Z" fill="#00FFFF"/>
<circle cx="700" cy="500" r="200" fill="url(#paint0_linear_45_2)"/>
<defs>
<linearGradient id="paint0_linear_45_2" x1="500" y1="500" x2="900" y2="500" gradientUnits="userSpaceOnUse">
<stop stop-color="#00FFFF"/>
<stop offset="1" stop-color="#11DD77"/>
</linearGradient>
</defs>
</svg>
